<svg xmlns="http://www.w3.org/2000/svg" width="1240" height="560" viewBox="0 0 1240 560">
  <rect width="100%" height="100%" fill="white"/>

  <text x="620" y="44" text-anchor="middle" font-size="24" font-family="Arial" fill="#333">Fluxo real do projeto</text>
  <text x="620" y="74" text-anchor="middle" font-size="14" font-family="Arial" fill="#666">Entrada → Orquestração → Busca → Extração → Persistência</text>

  <rect x="40" y="120" width="150" height="76" rx="12" fill="#E3F2FD" stroke="#1E88E5"/>
  <text x="115" y="162" text-anchor="middle" font-size="18" font-family="Arial" fill="#0D47A1">Usuário</text>

  <rect x="250" y="120" width="150" height="76" rx="12" fill="#E8F5E9" stroke="#43A047"/>
  <text x="325" y="162" text-anchor="middle" font-size="18" font-family="Arial" fill="#1B5E20">main.py</text>

  <rect x="470" y="120" width="190" height="76" rx="12" fill="#E0F7FA" stroke="#00ACC1"/>
  <text x="565" y="162" text-anchor="middle" font-size="17" font-family="Arial" fill="#006064">services/search.py</text>

  <rect x="730" y="120" width="180" height="76" rx="12" fill="#FFF3E0" stroke="#FB8C00"/>
  <text x="820" y="162" text-anchor="middle" font-size="17" font-family="Arial" fill="#E65100">ProcessCrawler</text>

  <rect x="980" y="120" width="180" height="76" rx="12" fill="#F3E5F5" stroke="#8E24AA"/>
  <text x="1070" y="162" text-anchor="middle" font-size="17" font-family="Arial" fill="#4A148C">Portal TRF5</text>

  <rect x="470" y="300" width="190" height="76" rx="12" fill="#FCE4EC" stroke="#D81B60"/>
  <text x="565" y="342" text-anchor="middle" font-size="18" font-family="Arial" fill="#880E4F">parser.py</text>

  <rect x="730" y="300" width="180" height="76" rx="12" fill="#F9FBE7" stroke="#7CB342"/>
  <text x="820" y="342" text-anchor="middle" font-size="18" font-family="Arial" fill="#33691E">storage.py</text>

  <rect x="980" y="300" width="180" height="76" rx="12" fill="#F1F8E9" stroke="#689F38"/>
  <text x="1070" y="342" text-anchor="middle" font-size="17" font-family="Arial" fill="#33691E">data/processos.jsonl</text>

  <line x1="190" y1="158" x2="250" y2="158" stroke="#555" stroke-width="2"/>
  <line x1="400" y1="158" x2="470" y2="158" stroke="#555" stroke-width="2"/>
  <line x1="660" y1="158" x2="730" y2="158" stroke="#555" stroke-width="2"/>
  <line x1="910" y1="158" x2="980" y2="158" stroke="#555" stroke-width="2"/>

  <line x1="820" y1="196" x2="565" y2="300" stroke="#555" stroke-width="2"/>
  <line x1="660" y1="338" x2="730" y2="338" stroke="#555" stroke-width="2"/>
  <line x1="910" y1="338" x2="980" y2="338" stroke="#555" stroke-width="2"/>

  <text x="235" y="208" font-size="14" font-family="Arial" fill="#444">escolhe o tipo de busca</text>
  <text x="690" y="208" font-size="14" font-family="Arial" fill="#444">consulta o portal</text>
  <text x="600" y="388" font-size="14" font-family="Arial" fill="#444">extrai dados</text>
  <text x="795" y="388" font-size="14" font-family="Arial" fill="#444">salva os resultados</text>

  <text x="620" y="470" text-anchor="middle" font-size="16" font-family="Arial" fill="#444">O fluxo real é: interface → serviço de busca → crawler → parser → armazenamento</text>
</svg>
